# ProBuilder 4.0.5
# https://unity3d.com/unity/features/worldbuilding/probuilder
# 18/04/2020 14:22:42

mtllib ./Plane.mtl
o Plane

g Plane
v 28.142 1.14 13.534
v 27.6645 2.634 13.534
v 27.90073 1.14 13.534
v 27.66211 2.634 13.534
v 27.65946 1.14 13.534
v 27.65946 2.634 13.534
v 27.41818 1.14 13.534
v 27.41818 2.634 13.534
v 27.17691 1.14 13.534
v 27.17691 2.634 13.534
v 26.93564 1.14 13.534
v 27.16834 2.634 13.534
v 26.69437 1.14 13.534
v 27.16071 2.634 13.534

vt 0 0
vt 0.6597003 2
vt 0.3333333 0
vt 0.6629942 2
vt 0.6666666 0
vt 0.6666666 2
vt 1 0
vt 1 2
vt 1.333333 0
vt 1.333333 2
vt 1.666667 0
vt 1.34517 2
vt 2 0
vt 1.355711 2

vn 0 0 -1

g Plane
usemtl ProBuilderDefault
f 3/3/1 4/4/1 2/2/1 1/1/1
f 5/5/1 6/6/1 4/4/1 3/3/1
f 7/7/1 8/8/1 6/6/1 5/5/1
f 9/9/1 10/10/1 8/8/1 7/7/1
f 11/11/1 12/12/1 10/10/1 9/9/1
f 13/13/1 14/14/1 12/12/1 11/11/1

